# xmcd CD database file
#
# Track frame offsets:
#	150
#	22437
#	45477
#	60342
#	87522
#	103417
#	128870
#	146680
#	173500
#	197325
#	227557
#	250100
#	273522
#
# Disc length: 4166 seconds
#
# Revision: 5
# Processed by: cddbd v1.5.2PL0 Copyright (c) Steve Scherf et al.
# Submitted via: CDex 1.51
#
DISCID=b310440d
DTITLE=Various Artist - ACT - Blue ACT
DYEAR=1994
DGENRE=Jazz
TTITLE0=Jasper van´t Hof and Wayne Krantz - Before Birth
TTITLE1=Javier Paxarino - Cortesanos
TTITLE2=Bazillus feat. Eddie Harris - Is Anybody Listening?
TTITLE3=Yusef Lateef and Eternal Wind - Love For All
TTITLE4=Muddy Waters - Captain, Captain
TTITLE5=Bob Brookmeyer and John Abercrombie and WDR Bigband - White Blues
TTITLE6=Gil Evans - Summertime
TTITLE7=Vince Mendoza and Charlie Mariano and Dave Liebmann and WDR Bigband - Pavane (pour une infante defunte)
TTITLE8=Larry Coryell and Philip Catherine - Nuages
TTITLE9=The Balthasar Thomass and Tony Pagano Quartet - Sweet Stan
TTITLE10=Bazillus feat. Eddie Harris - The Regulator
TTITLE11=Jorge Padro Los Jovenes Flamenco - La Cigarras
TTITLE12=Vince Mendoza - Tangos
EXTD=YEAR: 1994
EXTT0=
EXTT1=
EXTT2=
EXTT3=
EXTT4=
EXTT5=
EXTT6=
EXTT7=
EXTT8=
EXTT9=
EXTT10=
EXTT11=
EXTT12=
PLAYORDER=
